PathFileType	4	(X/Y/Z)	/Users/itak/Documents/Research/Walk-IL/dataset/trc/00106_00007.trc
DataRate	CameraRate	NumFrames	NumMarkers	Units	OrigDataRate	OrigDataStartFrame	OrigNumFrames
100.000000	100.000000	4	53	mm	100.000000	395	527
Frame#	Time	RPSI			LPSI			L3			STRN			T10			C7			CLAV			RBAK			LBAK			LSHO			LUPA			LAEL			LAOL			LWTS			LWPS			LFRA			LIFD			LHPS			LHTS			RSHO			RUPA			RAEL			RAOL			RWTS			RWPS			RFRA			RIFD			RHTS			RHPS			RBHD			LFHD			RFHD			LBHD			LHIP			RHIP			RASI			LASI			LKNE			LTHI			LANK			LTIP			LTOE			LMT1			LMT5			LHEE			RKNE			RTHI			RANK			RTIP			RTOE			RMT1			RMT5			RHEE			
		X1	Y1	Z1	X2	Y2	Z2	X3	Y3	Z3	X4	Y4	Z4	X5	Y5	Z5	X6	Y6	Z6	X7	Y7	Z7	X8	Y8	Z8	X9	Y9	Z9	X10	Y10	Z10	X11	Y11	Z11	X12	Y12	Z12	X13	Y13	Z13	X14	Y14	Z14	X15	Y15	Z15	X16	Y16	Z16	X17	Y17	Z17	X18	Y18	Z18	X19	Y19	Z19	X20	Y20	Z20	X21	Y21	Z21	X22	Y22	Z22	X23	Y23	Z23	X24	Y24	Z24	X25	Y25	Z25	X26	Y26	Z26	X27	Y27	Z27	X28	Y28	Z28	X29	Y29	Z29	X30	Y30	Z30	X31	Y31	Z31	X32	Y32	Z32	X33	Y33	Z33	X34	Y34	Z34	X35	Y35	Z35	X36	Y36	Z36	X37	Y37	Z37	X38	Y38	Z38	X39	Y39	Z39	X40	Y40	Z40	X41	Y41	Z41	X42	Y42	Z42	X43	Y43	Z43	X44	Y44	Z44	X45	Y45	Z45	X46	Y46	Z46	X47	Y47	Z47	X48	Y48	Z48	X49	Y49	Z49	X50	Y50	Z50	X51	Y51	Z51	X52	Y52	Z52	X53	Y53	Z53	

396	3.95	240.3789672851562	1099.816772460938	-239.0803070068359	231.5604705810547	1103.787109375	-374.1591491699219	227.9775238037109	1138.653686523438	-309.1311645507812	442.2785034179688	1342.935302734375	-313.7204284667969	188.3279724121094	1290.547119140625	-311.1207885742188	224.2620086669922	1582.45556640625	-324.1037902832031	405.1311340332031	1477.05419921875	-311.060302734375	170.5605621337891	1394.813110351562	-241.5478363037109	219.1382598876953	1565.1328125	-427.1283569335938	309.9877319335938	1552.839599609375	-489.7188415527344	307.2298583984375	1424.331787109375	-564.3421020507812	364.4967346191406	1213.175415039062	-595.4421997070312	294.9436340332031	1183.102905273438	-549.2732543945312	531.0786743164062	998.72314453125	-542.0814208984375	465.7447509765625	947.7867431640625	-579.124267578125	412.8250122070312	1106.226440429688	-599.3876342773438	604.1107177734375	821.595703125	-519.6114501953125	518.4639282226562	886.9602661132812	-576.6234741210938	576.3899536132812	920.2807006835938	-551.8882446289062	275.3334350585938	1558.286010742188	-140.2103576660156	254.772216796875	1483.928833007812	-80.21692657470703	221.9744262695312	1192.697387695312	-71.31793212890625	228.2477264404297	1194.051635742188	-167.9533996582031	336.3242492675781	934.6567993164062	-76.98193359375	257.8167724609375	927.6910400390625	-53.06977081298828	236.3232727050781	1118.056396484375	-55.52341461181641	331.6947021484375	739.6674194335938	-106.1044616699219	348.6125793457031	821.9857177734375	-75.38504791259766	279.8600463867188	823.3145141601562	-51.05228805541992	269.0964965820312	1752.577270507812	-235.5560455322266	427.2108154296875	1821.964477539062	-372.6583862304688	430.741455078125	1825.204711914062	-242.9732208251953	255.5556030273438	1753.52392578125	-370.5668640136719	319.0173950195312	1020.55615234375	-491.2586975097656	382.2788696289062	1011.914428710938	-130.9320526123047	453.1192321777344	1087.095336914062	-190.5370941162109	427.7698364257812	1087.649291992188	-455.6042175292969	335.67919921875	509.9177551269531	-454.5458984375	321.6222534179688	661.19091796875	-480.2139282226562	28.57039833068848	76.23757171630859	-427.2109985351562	140.1560821533203	311.4138793945312	-466.7007141113281	249.8946838378906	33.66626739501953	-367.6509704589844	172.7100067138672	50.49052429199219	-339.1804809570312	144.1126251220703	35.20305633544922	-451.5048522949219	-34.91598892211914	110.5570907592773	-364.9793090820312	512.5014038085938	541.6666870117188	-176.9131011962891	452.0110168457031	812.1864624023438	-140.7318878173828	543.7135009765625	22.74826049804688	-209.9593811035156	523.7933349609375	406.7950134277344	-166.9032440185547	769.6535034179688	69.68329620361328	-257.1560668945312	715.8765258789062	53.56010818481445	-300.4440612792969	674.2488403320312	40.99214553833008	-186.2982025146484	488.0751342773438	29.18759155273438	-260.6614685058594	
397	3.96	248.9406890869141	1101.109619140625	-237.0739135742188	239.3832397460938	1104.590209960938	-372.1124877929688	236.0789489746094	1139.695068359375	-307.0278015136719	450.0750122070312	1344.356567382812	-312.8880310058594	196.3943176269531	1291.376220703125	-308.85400390625	231.4479675292969	1583.334838867188	-321.8632202148438	412.6729125976562	1478.424926757812	-309.9788818359375	178.9207458496094	1395.5341796875	-238.9546356201172	225.6889343261719	1566.167602539062	-424.8215942382812	316.247314453125	1554.299560546875	-487.9660339355469	313.0351257324219	1425.589721679688	-562.3948974609375	368.5829772949219	1213.854736328125	-592.7835083007812	299.2268981933594	1184.696044921875	-545.7255859375	532.1053466796875	996.4537353515625	-540.7470092773438	465.3522033691406	946.7744140625	-576.9381713867188	415.1656494140625	1106.126342773438	-596.917724609375	601.6808471679688	817.7356567382812	-518.8114624023438	516.7427368164062	884.900634765625	-574.9223022460938	575.6056518554688	916.961669921875	-550.8757934570312	283.7096557617188	1559.347534179688	-138.3667907714844	263.8835754394531	1484.978637695312	-78.12483978271484	232.7441864013672	1193.610595703125	-68.25119781494141	238.3801727294922	1194.7041015625	-164.8735046386719	349.3463745117188	936.52294921875	-73.82292938232422	270.9695434570312	928.925048828125	-49.52492904663086	247.8165893554688	1119.079345703125	-52.30989456176758	346.2677612304688	741.4064331054688	-102.2727127075195	362.6405944824219	823.985107421875	-71.90354156494141	293.972412109375	824.765380859375	-47.23799896240234	276.3729858398438	1753.783325195312	-233.53125	434.1158447265625	1823.165649414062	-371.0780944824219	438.0360412597656	1826.31201171875	-241.4043426513672	262.4022216796875	1754.824829101562	-368.4984741210938	326.5602111816406	1020.992309570312	-489.2608337402344	391.0104064941406	1013.715209960938	-129.265869140625	461.799560546875	1088.731201171875	-189.3689422607422	435.2427368164062	1088.688842773438	-454.2777404785156	349.8957824707031	509.7249145507812	-455.015380859375	333.7979736328125	661.3013305664062	-479.6991577148438	31.73687171936035	82.6324462890625	-427.4684143066406	149.6493530273438	315.8587646484375	-466.3445129394531	249.8451690673828	33.43014144897461	-367.9839172363281	174.1912689208984	51.74338912963867	-339.45751953125	144.8910369873047	35.86793518066406	-451.05859375	-29.87452125549316	120.267822265625	-365.1002807617188	518.4111938476562	542.1211547851562	-175.4546661376953	460.1073303222656	813.4155883789062	-138.7933654785156	544.2174072265625	22.64703941345215	-209.4795837402344	528.6781616210938	407.0546264648438	-165.6213531494141	770.7078857421875	67.05263519287109	-257.9228515625	716.2491455078125	52.07058715820312	-300.9580078125	675.2005615234375	40.13150024414062	-186.4316558837891	488.3989868164062	29.37430381774902	-259.9778137207031	
398	3.97	257.3899536132812	1102.310791015625	-234.9503936767578	247.0595397949219	1105.310668945312	-369.9288024902344	244.0926513671875	1140.684692382812	-304.8031616210938	457.8203430175781	1345.71630859375	-312.1090393066406	204.3895568847656	1292.169067382812	-306.4541931152344	238.5949401855469	1584.177612304688	-319.620361328125	420.1614990234375	1479.704833984375	-308.9544372558594	187.2372436523438	1396.255004882812	-236.2659759521484	232.1732788085938	1567.1337890625	-422.4949035644531	322.3924255371094	1555.676879882812	-486.2276000976562	318.6949157714844	1426.780151367188	-560.4759521484375	372.5114440917969	1214.465209960938	-590.2456665039062	303.3812866210938	1186.228759765625	-542.302001953125	532.8319091796875	994.081787109375	-539.4285278320312	464.6883544921875	945.7286987304688	-574.798583984375	417.3236999511719	1105.968017578125	-594.536376953125	598.67626953125	813.6973876953125	-517.77734375	514.68896484375	882.7703857421875	-573.1610717773438	574.427001953125	913.4859619140625	-549.7484741210938	292.1433715820312	1560.394409179688	-136.5383911132812	273.0906677246094	1486.03125	-76.01608276367188	243.5365600585938	1194.533081054688	-65.10130310058594	248.4622039794922	1195.348510742188	-161.7101135253906	362.5662841796875	938.5123291015625	-70.6427001953125	284.3561401367188	930.2003784179688	-45.93301773071289	259.3687744140625	1120.110473632812	-49.02779769897461	361.2785949707031	743.2886352539062	-98.41201019287109	377.0123901367188	826.151123046875	-68.40095520019531	308.435302734375	826.2938842773438	-43.38884735107422	283.5584106445312	1754.878540039062	-231.5402984619141	440.9180603027344	1824.362548828125	-369.4850769042969	445.2051086425781	1827.366943359375	-239.8141937255859	269.1756591796875	1756.0595703125	-366.4638671875	333.90478515625	1021.371276855469	-487.1915283203125	399.6821594238281	1015.380920410156	-127.5916213989258	470.4076538085938	1090.233154296875	-188.2110900878906	442.5135192871094	1089.681396484375	-452.9289245605469	364.4959411621094	509.6885681152344	-455.856201171875	346.0712585449219	661.5007934570312	-479.4230041503906	35.44682312011719	89.50977325439453	-427.833984375	159.8188171386719	320.5950012207031	-466.2282104492188	249.8203735351562	33.24089813232422	-368.541015625	175.9926300048828	53.21028518676758	-339.8233642578125	145.8167114257812	36.73968887329102	-450.6583862304688	-23.89719200134277	130.4405670166016	-365.3656311035156	523.8080444335938	542.3748779296875	-174.0457763671875	467.9441528320312	814.4223022460938	-136.8609313964844	544.7274169921875	22.64937591552734	-209.1336212158203	533.118408203125	407.1754455566406	-164.4481201171875	771.648681640625	64.66248321533203	-258.8717041015625	716.5325927734375	50.71321487426758	-301.6734619140625	676.097900390625	39.56915664672852	-186.7634124755859	488.6578063964844	29.46462059020996	-259.3208312988281	
399	3.98	265.7209777832031	1103.411499023438	-232.7354888916016	254.5650329589844	1105.90625	-367.635498046875	252.0089874267578	1141.591552734375	-302.4828491210938	465.5142211914062	1346.993774414062	-311.4063720703125	212.2947998046875	1292.8984375	-303.9396667480469	245.6964111328125	1584.9560546875	-317.3774719238281	427.5752868652344	1480.858032226562	-307.987060546875	195.4870147705078	1396.948120117188	-233.4958648681641	238.5924682617188	1567.997436523438	-420.1524963378906	328.4127807617188	1556.900268554688	-484.5136108398438	324.1893920898438	1427.826904296875	-558.5803833007812	376.2978515625	1214.9453125	-587.8382568359375	307.4158630371094	1187.620849609375	-539.0390014648438	533.3051147460938	991.590087890625	-538.1302490234375	463.8286743164062	944.6102294921875	-572.7399291992188	419.3452453613281	1105.703979492188	-592.2615966796875	595.1875610351562	809.4795532226562	-516.4777221679688	512.3989868164062	880.5487060546875	-571.3622436523438	572.9530639648438	909.8799438476562	-548.5073852539062	300.6207580566406	1561.391967773438	-134.7224731445312	282.3715515136719	1487.049072265625	-73.89881134033203	254.3585052490234	1195.426391601562	-61.86465072631836	258.4762573242188	1195.943237304688	-158.4639129638672	375.9600830078125	940.5875244140625	-67.47299194335938	297.9788208007812	931.4849853515625	-42.29500961303711	270.9813232421875	1121.114990234375	-45.68008804321289	376.6995239257812	745.2864379882812	-94.55001068115234	391.7004699707031	828.4491577148438	-64.91159820556641	323.2414245605469	827.871337890625	-39.51726150512695	290.6554260253906	1755.826293945312	-229.5890960693359	447.6159057617188	1825.517456054688	-367.8915100097656	452.2492980957031	1828.342651367188	-238.2158203125	275.8787231445312	1757.182006835938	-364.4674987792969	341.0274047851562	1021.665466308594	-485.0842895507812	408.3168334960938	1016.9052734375	-125.9452514648438	478.9478149414062	1091.581665039062	-187.1060943603516	449.5658874511719	1090.618286132812	-451.5971374511719	379.3899536132812	509.8444519042969	-457.0077514648438	358.360107421875	661.796142578125	-479.3637084960938	39.76520156860352	96.81369018554688	-428.2873840332031	170.6120758056641	325.5587768554688	-466.3280029296875	249.9824066162109	33.10161590576172	-369.4125061035156	178.2683563232422	54.92771911621094	-340.3284606933594	146.9789581298828	37.91189193725586	-450.3451538085938	-16.96132850646973	140.9066467285156	-365.7387390136719	528.6445922851562	542.4258422851562	-172.6389923095703	475.5049133300781	815.2134399414062	-135.0140991210938	545.2108154296875	22.72846794128418	-208.9162292480469	537.0335083007812	407.1412658691406	-163.3130187988281	772.5090942382812	62.43630599975586	-259.8252868652344	716.7889404296875	49.45673370361328	-302.459228515625	676.9116821289062	39.17803192138672	-187.1947631835938	488.8547058105469	29.488525390625	-258.7200317382812	
